<?xml version="1.0" encoding="utf-8"?>
<!-- Generator: Adobe Illustrator 22.0.0, SVG Export Plug-In . SVG Version: 6.00 Build 0)  -->
<svg version="1.1" id="Layer_1" xmlns="http://www.w3.org/2000/svg" xmlns:xlink="http://www.w3.org/1999/xlink" x="0px" y="0px"
	 viewBox="0 0 97 97" style="enable-background:new 0 0 97 97;" xml:space="preserve">
<style type="text/css">
	.st0{fill:#C4C7BF;}
	.st1{fill:#96ADBA;}
	.st2{fill:#9E9E99;}
	.st3{fill:#F7F7F7;}
	.st4{fill:none;stroke:#638296;stroke-width:0.6947;stroke-linecap:round;stroke-linejoin:round;stroke-miterlimit:10;}
	.st5{fill:#BD3030;}
	.st6{fill:#F59E00;}
	.st7{fill:#7A2B2B;}
	.st8{fill:none;stroke:#BD3030;stroke-width:0.4285;stroke-miterlimit:10;}
	.st9{fill:#6E9C8C;}
	.st10{fill:none;stroke:#30404A;stroke-width:0.2697;stroke-miterlimit:10;}
	.st11{fill:#42525E;}
	.st12{fill:#30404A;}
	.st13{fill:none;stroke:#1C262E;stroke-width:0.284;stroke-miterlimit:10;}
	.st14{fill:#AD6E47;}
	.st15{fill:none;stroke:#B57300;stroke-width:0.2764;stroke-linecap:round;stroke-linejoin:round;stroke-miterlimit:10;}
	.st16{fill:#B57300;}
	.st17{fill:none;stroke:#000000;stroke-width:0.2535;stroke-miterlimit:10;}
	.st18{fill:#38856E;}
	.st19{fill:none;stroke:#303830;stroke-width:0.1267;stroke-miterlimit:10;}
	.st20{fill:#29614F;}
	.st21{fill:none;stroke:#704226;stroke-width:0.1267;stroke-miterlimit:10;}
	.st22{fill:#1C262E;}
	.st23{fill:#704226;}
</style>
<g>
	<polygon class="st0" points="78.9,68.1 21.8,68.1 33.4,11 90.5,11 78.9,68.1 	"/>
	<polygon class="st1" points="88.8,76.8 53.3,76.8 60.6,41.3 96,41.3 88.8,76.8 	"/>
	<path class="st2" d="M29.4,16.5c0,7.2-5.8,13-13,13c-7.2,0-13-5.8-13-13c0-7.2,5.8-13,13-13C23.6,3.5,29.4,9.3,29.4,16.5L29.4,16.5
		z"/>
	<path class="st1" d="M28.6,15c0,7.2-5.8,13-13,13c-7.2,0-13-5.8-13-13c0-7.2,5.8-13,13-13C22.7,2,28.6,7.8,28.6,15L28.6,15z"/>
	<path class="st3" d="M25.9,15c0,5.7-4.7,10.4-10.4,10.4C9.8,25.4,5.2,20.8,5.2,15c0-5.7,4.7-10.4,10.4-10.4
		C21.3,4.6,25.9,9.3,25.9,15L25.9,15z"/>
	<polyline class="st4" points="10.8,9 15.4,15 22,11 	"/>
	<polygon class="st5" points="89.8,60.3 71.1,60.3 71.5,58.1 90.3,58.1 89.8,60.3 	"/>
	<path class="st3" d="M84.4,48.7l0.1-0.7c3-1.1,5.8-4.9,6.8-9.4H78.1c-0.9,4.5,0.5,8.3,3.1,9.4l-0.1,0.7c-3,1.1-5.8,4.9-6.8,9.4
		h13.1C88.3,53.5,87,49.8,84.4,48.7L84.4,48.7z"/>
	<path class="st6" d="M85.3,54.3c-0.3-0.1-0.6-0.2-0.9-0.3c-1.4-0.4-2.1-1.8-1.8-3.4l0.4-2.1c0.1-0.5,0.5-0.9,0.9-1.1
		c1.2-0.4,2.7-1.4,3.8-2.8c-0.4,0-0.9,0.1-1.1,0.1c-0.6,0.1-0.5,0-1.5-0.2c-0.9-0.2-1.1,0.1-2.2,0.2c-1.1,0.1-1.3-0.2-2.2-0.4
		c-0.6-0.1-1,0.1-1.5,0.1c0.5,1.6,1.6,2.6,2.7,3c0.4,0.2,0.6,0.6,0.5,1.1L82,50.7c-0.3,1.5-1.6,2.9-3.1,3.4c-0.3,0.1-0.7,0.2-1,0.3
		c-1.2,0.5-2.1,1.6-2.4,2.8h11C86.8,55.9,86.3,54.8,85.3,54.3L85.3,54.3z"/>
	<polygon class="st7" points="73.7,58.1 72.2,58.1 76,38.6 77.5,38.6 73.7,58.1 	"/>
	<polygon class="st7" points="89.6,58.1 88.1,58.1 91.9,38.6 93.4,38.6 89.6,58.1 	"/>
	<polygon class="st5" points="94.1,38.6 75.3,38.6 75.8,36.4 94.5,36.4 94.1,38.6 	"/>
	<path class="st8" d="M44.9,17.5c-1.4,0-1.2-0.8-2.5-0.8s-1.6,0.8-3,0.8c-1.4,0-1.2-0.8-2.5-0.8c-1.4,0-1.6,0.8-3,0.8
		c-1.4,0-1.2-0.8-2.5-0.8c-1.4,0-1.6,0.8-3,0.8c-1.4,0-1.2-0.8-2.5-0.8 M44.1,20.4c-1.4,0-1.2-0.8-2.5-0.8s-1.6,0.8-3,0.8
		c-1.4,0-1.2-0.8-2.5-0.8c-1.4,0-1.6,0.8-3,0.8c-1.4,0-1.2-0.8-2.5-0.8c-1.4,0-1.6,0.8-3,0.8c-1.4,0-1.2-0.8-2.5-0.8 M43.3,23.4
		c-1.4,0-1.2-0.8-2.5-0.8c-1.4,0-1.6,0.8-3,0.8c-1.4,0-1.2-0.8-2.5-0.8c-1.4,0-1.6,0.8-3,0.8c-1.4,0-1.2-0.8-2.5-0.8
		c-1.4,0-1.6,0.8-3,0.8c-1.4,0-1.2-0.8-2.5-0.8"/>
	<path class="st9" d="M68.2,91.8H6c0,0-3.2-7.4,1.5-14.3c0,0-0.2-5.7,1.6-6.1c1-0.2,1.1,0.7,1.1,0.7s0.3-2.4,1.3-2.5
		c0,0-0.1-13.9,1.9-13.8c2.1,0.2,2.9,9.2,2.9,9.2s3-1.6,5.4,3.9c0,0-4-25.9-2.4-29.8c1.6-3.9,1.3-6.2,1.6-8.7
		c0.3-2.5,2.1-2.5,3.3-0.5c1.2,2,2.4,8.4,3.7,11.7c1.3,3.3,2.7,3.1,3.7,7.6c1,4.5,1.4,7.9,1.4,7.9s3-0.3,4.1,2.9
		c1.1,3.1,3.2,3,4.1,4.7c0.9,1.7,2.2,10,2.2,10s-0.2-6.7,0.9-6.1c1.2,0.6,0.8,7.7,3.1,8.9c2.3,1.2,4,5,4,5s-2.3-7.8-0.6-7.8
		c1.8,0,3.3,6.1,3.3,6.1s3.2,1,4.1,5.2c0,0,2-0.4,3,1.3C62.4,88.8,65.6,91.5,68.2,91.8L68.2,91.8z"/>
	<path class="st10" d="M13.8,58c0,0,1.9,24.1,4.6,33.7 M23.2,34.3c0,0,5.9,35.1,7.3,57.5 M37.1,63.8c0,0,3.7,18.2,4.6,28 M52.7,80.7
		c0,0,1.9,7.7,2.4,11.1 M41.6,72c0,0-0.3,6.6-1.1,11.6 M10,74.9c0,0,3.8,7.1,7.3,12.2 M18.2,67.7l-2.9,6 M29.9,48.3
		c0,0-0.9,13.4-1.9,19.1 M31.6,64.9c0,0,3.6,7.4,8,12.6 M51.1,85.9l3.8,4.7"/>
	<polygon class="st11" points="17.4,65.9 2.5,51.2 12.2,42.5 25.9,56.1 17.4,65.9 	"/>
	<polygon class="st12" points="24.2,58.1 25.9,56.1 12.3,42.6 11.8,56.3 24.2,58.1 	"/>
	<polygon class="st11" points="12.3,42.6 25.9,56.1 13.2,55.2 12.3,42.6 	"/>
	<path class="st13" d="M15.6,45.9c0,0,5.6-1.1,7.4,0.9c1.8,1.9-0.4,6-0.4,6"/>
	<path class="st14" d="M29.4,75.9L22.3,78c0,0-2.4,1.6-3.5,2c0,0-2.4,2.2-2.8,2.1c-0.4-0.2-0.2-1.7,1.1-3.3c0.8-1,1.7-2.2,2.2-2.9
		c0.3-0.4,0.7-0.5,1.1-0.2l0.9,0.5c0,0,0.4,0,1-0.4c0.6-0.4,6.2-3.6,6.2-3.6L29.4,75.9L29.4,75.9z"/>
	<path class="st14" d="M70.7,75.5l3.5,7.6c0,0,2.2,2.4,2.8,3.6c0,0,2.9,2.3,2.8,2.8C79.8,90,78,90,76,88.8c-1.3-0.7-2.8-1.5-3.7-2
		c-0.4-0.2-0.6-0.8-0.5-1.2l0.4-1.1c0,0-0.1-0.4-0.6-1.1c-0.5-0.6-5.1-6.4-5.1-6.4L70.7,75.5L70.7,75.5z"/>
	<path d="M79.9,89.5c0.1-0.5-2.8-2.8-2.8-2.8c-0.1-0.3-0.3-0.6-0.6-0.9c-2.1,0.2-4.2-1.2-4.2-1.2l-0.4,1.1c-0.2,0.5,0,1,0.5,1.2
		c0.9,0.5,2.4,1.3,3.7,2C78,90,79.8,90,79.9,89.5L79.9,89.5z"/>
	<path class="st6" d="M54,39.3c0,0,0.5,0.2,0.4,0.9c0,0.7-0.3,0.5-0.7,1.2c-0.3,0.7-0.9,4.2-0.9,4.2s6.4,7.2,9.2,10.7
		c4.3,5.4,9.1,19.6,9.1,19.6s-1,1.1-2.6,1.6c-1.6,0.5-2.5,0.3-3.6,1c-1.1,0.7-2.5,0.9-2.5,0.9s-1.8-2.4-3.6-4.8
		c-1.8-2.4-6-10.8-6-10.8L49.3,62c0,0-1.8,5.1-3.7,8.4c-1.9,3.4-8.4,6.5-10.6,7.7c-2.3,1.3-6.7,2.2-6.7,2.2s-1-1.4-0.6-3
		c0.4-1.6-0.2-3.4-0.1-4.7c0,0,5-3.7,5.9-4.8c1-1.1,1.1-2.3,2.2-2.4c0,0,2.4-6.9,2.4-8.9s-0.4-4.2-0.1-7.8c0.3-3.5,2.3-6.6,2.3-6.6
		s-1-0.7,0-1.3C41.3,40.2,54,39.3,54,39.3L54,39.3z"/>
	<path class="st15" d="M52.8,45.6c0,0-1-0.4-1.6-0.8c-0.6-0.3-1.6-0.5-1.6-0.5"/>
	<path class="st16" d="M38,48.4c0,0.1,0,0.2,0,0.3c-0.3,3.5,0.1,5.8,0.1,7.8s-2.4,8.9-2.4,8.9c-1.1,0.1-1.2,1.3-2.2,2.4
		c-0.8,0.9-4.5,3.7-5.6,4.5c0,0,3-0.1,5.1-1.8c2.1-1.6,2.5-2.3,4.5-2.9c2-0.5,5.6-1.1,5.6-1.1c1.3-2.4,6.2-4.6,6.2-4.6
		c-2.2-1.1-5.8-4.3-7.7-6C39.6,54.4,37.7,52.1,38,48.4L38,48.4z"/>
	<path class="st15" d="M38.6,67c0,0,1.7,1.4,4.3,2 M39,68.3c0,0,2.2,1.1,2.1,1.6c-0.1,0.5-1-0.3-1-0.3 M37.8,68.3l2,3.1 M53.1,63.2
		c0,0,3.5-3.9,4-3.8c0.5,0-1.1,1.9-1.1,1.9 M53.9,63.5c0,0,3-0.9,4-1c1-0.1,1.6-0.4,1.6-0.4 M52.4,62.1c0,0-0.1-1.2,0.7-1.7
		c0.8-0.5,1.6-1.6,1.6-1.6"/>
	<path class="st16" d="M54.2,40.8c0.2-0.2,0.3-0.3,0.3-0.7c0-0.7-0.4-0.9-0.4-0.9s-12.7,0.9-13.8,1.6c-1,0.6,0,1.3,0,1.3
		s-1.3,1.9-2,4.5c2.4,3.1,9.4-3.4,11-4.3C50.9,41.4,52.2,42.2,54.2,40.8L54.2,40.8z"/>
	<path class="st14" d="M27.5,41.2c0,0-3.4,2.9-3.8,3.3c-0.5,0.3-2.1,0.6-2.4,1.1c-0.3,0.5,0.3,1.4,0.4,2c0.1,0.7,1.3,0,1.3,0
		s0.9,0.1,1.4-0.3c0.4-0.4,0.7-1.5,0.7-1.5l4.3-2.7C29.3,43,29.2,41,27.5,41.2L27.5,41.2z"/>
	<path class="st17" d="M42.6,35.3c0,0,0.4-2.6,2.1-4.2"/>
	<path class="st6" d="M28.6,39.8l-1.4,1.4c0,0,0.4,1.3,1.8,2.4l1.5-1C30.6,42.7,30,39.6,28.6,39.8L28.6,39.8z"/>
	<path class="st18" d="M44,25.7c2-0.8,4.6-3.4,8.2-3.5c3.6-0.2,6.9,1.2,9.1,3.2c2.2,1.9,4.5,3.4,5.1,4.2c0.6,0.7,1.7,0.9,1.9,1.4
		c0.2,0.6,1.2,0,1.4,0.3c0.3,0.3,2.5-0.3,3.6,0.4c0,0,1.8,2.8,1.3,3.8c-0.5,1-1.7,3.5-4.5,3.6c-2.8,0.1-2.7-0.4-4-1
		c-1.3-0.6-3.6-1-4.7-2.4c-1.1-1.3-4-2.2-4.2-2.8c0,0-1.5,2.3-1.8,3.8c-0.3,1.5,0.6,2-1,2.9c-1.5,0.9-5.8,1.7-8.9,2
		c-3,0.2-4.9,0.4-5.7-0.6c-0.8-1,0.4-2.4,0.4-2.4s0.2-4,1.2-5.2C42.5,32,42.7,26.2,44,25.7L44,25.7z"/>
	<path class="st19" d="M51.1,22.3c0,0-0.4,2.1,0.7,3.5c0,0,1.8-0.8,2,0.4c0.2,1.2-0.7,1.9-0.7,1.9s0.5,0.9,2,1.3c0,0,1.6-0.7,2-1.3
		c0,0-1-1.3-0.5-1.8c0.5-0.5,1.1-0.3,1.1-0.3s0.1-1.6-1.2-3.2"/>
	<path class="st6" d="M73.6,30.9c0,0-1.3,0.2-1.6,0.7c-0.3,0.4-1,1.4,0,2.9c1,1.5,2.1,1.3,2.4,1.1c0.3-0.2,1.3-1.2,0.9-2.6
		C74.8,31.7,74.4,30.9,73.6,30.9L73.6,30.9z"/>
	<path class="st20" d="M64.6,36.3c-0.5-1.2-0.5-1.7-1.5-2.4c-1-0.7-2-1.2-2.3-3.4c-0.3-2.2-1.5-4.9-1.5-4.1
		c-0.1,1.1-0.1,1.7-0.1,3.2c-0.1,1.4-1.7,2.3-2,3.2c0.2,0.5,3.1,1.4,4.2,2.8c1.1,1.3,3.4,1.8,4.7,2.4c0.1,0.1,0.2,0.1,0.4,0.2l0,0
		C66.4,38.1,65.1,37.5,64.6,36.3L64.6,36.3z"/>
	<path class="st19" d="M68.2,31.5c0,0-1.2-0.1-1.1,2.1 M67.5,30.9c0,0-0.1,0.2-0.8,0.4c-0.8,0.2-1.6,0-1.5,0.6
		c0,0.6,0.8,0.1,0.8,0.1"/>
	<path class="st14" d="M73.2,31.5c0,0,6.7-3.7,6.9-3.9c0.2-0.3,0-1.5,0.8-1.9c0.7-0.3,1,0,1,1c0.1,1-0.9,2.1-0.9,2.1s-5.4,5-6.1,5.7
		c-0.6,0.7-1.5,0.1-2-0.8C72.3,32.7,72.4,32.1,73.2,31.5L73.2,31.5z"/>
	<path class="st21" d="M80.9,26.1c0.1,0.2,0.4,0,0.6,0.3c0.1,0.3,0.1,0.8,0,0.7c-0.1-0.1-0.2-0.2-0.2-0.2s0,1.1-0.6,1.1"/>
	<path class="st19" d="M55.1,29.5c-0.2,1.2,0.3,2.1-0.7,3.3c-1,1.2-2.1,0.7-2.6,2.6c-0.5,1.9-0.5,3.9-1.7,5.5"/>
	<path class="st20" d="M46.7,34.4c1.2-1.3,3.4-2.2,3.9-3.9c0.5-1.7,0-1.7-0.2-3.3c-0.2-1.6-0.8-1.4-2.1-1.9l-5.8,3.9
		c-0.3,1.7-0.6,3.4-1.1,4c-1,1.2-1.2,5.2-1.2,5.2s-1.2,1.4-0.4,2.4c0.2,0.2,0.4,0.4,0.7,0.5C43.5,41.4,45.6,35.5,46.7,34.4
		L46.7,34.4z"/>
	<path d="M16,82c0.4,0.2,2.8-2.1,2.8-2.1c0.2-0.1,0.5-0.2,0.8-0.4c0.1-1.9,1.7-3.5,1.7-3.5l-0.9-0.5c-0.4-0.2-0.9-0.1-1.1,0.2
		c-0.5,0.7-1.4,1.9-2.2,2.9C15.9,80.3,15.6,81.9,16,82L16,82z"/>
	<path class="st22" d="M58.5,14.2c1.6,0,2,0.3,2.1,1.1c0.1,0.8-0.4,1.1-0.3,1.6c0.1,0.6,0.7,1.1,0.8,2c0,1,1.2,2.2,0.8,3.8
		c0,0-0.5,0-1.5,0.3c-1,0.3-1.5,0.1-2.3,0c-0.9-0.1-2.3-0.4-2.7-0.4c-0.3,0.1-2-0.3-1.9-1.9C53.5,19.2,58.5,14.2,58.5,14.2
		L58.5,14.2z"/>
	<path class="st14" d="M57.8,14.9c0.9,0.4,0.9,1.2,1,1.9c0.1,0.7,0.4,1.3,1,1.4c0,0-0.2,0.8-0.3,1.4c0,0.6,0.2,1.1-0.3,1.4
		c-0.5,0.3-2,0.5-2,0.5L56,24.1c0,0,0.5,2.7-0.7,4.4c-0.3,0.4-0.2-1.7-0.4-2.6c-0.2-0.9-1.8-2.4-2.5-3.5c-0.7-1.1,0-4.8,1-5.9
		C54.5,15.5,56.2,14.1,57.8,14.9L57.8,14.9z"/>
	<path class="st23" d="M54.2,20.7c0,0-0.5,1.1,1.8,3.3l1.3-2.7C55.4,21.8,54.2,20.7,54.2,20.7L54.2,20.7z"/>
	<path class="st22" d="M58.3,15.2c-1,0.3-1.8,0.3-1.9,1.6c-0.1,1.4,0,2-0.3,2c-0.3,0-0.4-0.8-0.8-1.1c-0.4-0.3-0.8,0.1-0.9,0.8
		c-0.1,0.7,0.4,1,1,0.9l0.4,3.4c0,0-0.1-0.2-1.5,0.2c-1.3,0.3-1.9,0.9-3.2,0.2c-1.3-0.7-1.1-0.6-2.3-0.6c-1.2-0.1-1.4-1.2-0.2-2.8
		c1.2-1.6,1-2.7,2-3.4c1-0.7-0.2-1,2-1.5c2.2-0.5,4.8-0.5,5.9-0.6C59.5,14.1,59.1,15,58.3,15.2L58.3,15.2z"/>
	<path class="st18" d="M28.3,40.1c0,0,0.2-3,3-5.4c2.8-2.4,4.9-3.1,7-4.9c2.1-1.8,6.1-5.4,9.1-4.8c3,0.6,3.3,3.5,2.1,5.6
		c-1.2,2-6,4.7-6.9,5.9c-1,1.2-3,1.8-3,1.8S36.3,42,35,42.4c-2.8,0.8-4.9,0.4-4.9,0.4S28.9,41.8,28.3,40.1L28.3,40.1z"/>
	<path class="st19" d="M39.6,37.6c0,0-0.8-0.4,0.6-2 M38.9,38.1V36"/>
</g>
</svg>
