<?xml version="1.0" encoding="utf-8"?>
<!-- Generator: Adobe Illustrator 22.0.0, SVG Export Plug-In . SVG Version: 6.00 Build 0)  -->
<svg version="1.1" id="Layer_1" xmlns="http://www.w3.org/2000/svg" xmlns:xlink="http://www.w3.org/1999/xlink" x="0px" y="0px"
	 viewBox="0 0 370.3 305.2" style="enable-background:new 0 0 370.3 305.2;" xml:space="preserve">
<style type="text/css">
	.st0{clip-path:url(#SVGID_2_);}
	.st1{clip-path:url(#SVGID_4_);fill:#007FC5;}
	.st2{clip-path:url(#SVGID_6_);fill:#007FC5;}
	.st3{clip-path:url(#SVGID_8_);fill:#FEC14B;}
	.st4{clip-path:url(#SVGID_10_);fill:#D34D42;}
	.st5{clip-path:url(#SVGID_12_);fill:#007FC5;}
	.st6{fill:none;stroke:#939598;stroke-width:1.236;stroke-linecap:round;stroke-linejoin:round;stroke-dasharray:0,3.707;}
	.st7{clip-path:url(#SVGID_14_);fill:none;stroke:#939598;stroke-width:1.236;stroke-linecap:round;stroke-linejoin:round;}
	.st8{clip-path:url(#SVGID_16_);fill:#FFFFFF;}
	.st9{clip-path:url(#SVGID_18_);fill:#005EAC;}
	.st10{clip-path:url(#SVGID_20_);fill:#005EAC;}
	.st11{clip-path:url(#SVGID_22_);fill:#007FC5;}
	.st12{clip-path:url(#SVGID_24_);fill:#005EAC;}
	.st13{clip-path:url(#SVGID_26_);fill:#007FC5;}
	.st14{clip-path:url(#SVGID_28_);fill:#007FC5;}
</style>
<g>
	<g>
		<g>
			<defs>
				<rect id="SVGID_1_" x="310.9" y="182" width="65.3" height="95.4"/>
			</defs>
			<clipPath id="SVGID_2_">
				<use xlink:href="#SVGID_1_"  style="overflow:visible;"/>
			</clipPath>
			<g transform="matrix(1 0 0 1 0 0)" class="st0">
				
					<image style="overflow:visible;enable-background:new    ;" width="279" height="410" xlink:href="C207DBDC060E1D46.png"  transform="matrix(0.2333 0 0 0.233 310.9926 181.9346)">
				</image>
			</g>
		</g>
	</g>
</g>
<g>
	<g>
		<g>
			<defs>
				<rect id="SVGID_3_" x="0.3" y="17.1" width="375.8" height="286.8"/>
			</defs>
			<clipPath id="SVGID_4_">
				<use xlink:href="#SVGID_3_"  style="overflow:visible;"/>
			</clipPath>
			<path class="st1" d="M291.2,280.9c1.9,0,5.3-0.8,5.3-3.9c0-2.9-2.9-3.5-5.3-4c-1.6-0.3-2.7-0.4-2.7-1.5c0-0.9,0.8-1.8,2.7-1.8
				c1.3,0,2.5,0.4,3.5,1c0.2,0.1,0.3,0.1,0.5,0.1c0.6,0,1.1-0.5,1.1-1.1c0-0.4-0.2-0.8-0.6-1c-1.3-0.7-2.8-1.2-4.4-1.2
				c-2.3,0-5.2,1.2-5.2,4.2c0,3.1,3.1,3.6,5.1,3.9c1.8,0.3,2.9,0.5,3,1.5c0,1.4-2,1.6-2.9,1.6c-1.3,0-2.5-0.5-3.7-1
				c-0.8-0.4-1.6,0.2-1.6,1c0,0.4,0.2,0.8,0.6,1C288,280.4,289.7,280.9,291.2,280.9z M276.4,278.4h-2.9v-8.6h2.9
				c2.4,0,4.3,1.9,4.3,4.3S278.8,278.4,276.4,278.4 M276.4,267.6h-4.1c-0.6,0-1.2,0.5-1.2,1.2v10.8c0,0.6,0.5,1.2,1.2,1.2h4.1
				c3.7,0,6.6-2.9,6.6-6.6C283.1,270.5,280.1,267.6,276.4,267.6 M266.9,280.7c0.6,0,1.2-0.5,1.2-1.2v-10.8c0-0.6-0.5-1.2-1.2-1.2
				c-0.6,0-1.2,0.5-1.2,1.2v10.8C265.7,280.2,266.2,280.7,266.9,280.7 M255.4,275.5l1.8-4l1.8,4H255.4z M263.1,279.1l-4.8-10.9
				c-0.2-0.4-0.6-0.7-1.1-0.7s-0.9,0.3-1.1,0.7l-4.8,10.9c-0.3,0.6,0,1.3,0.6,1.5c0.6,0.3,1.3,0,1.5-0.6l1-2.2h5.6l1,2.2
				c0.3,0.6,1,0.9,1.5,0.6C263.1,280.3,263.3,279.7,263.1,279.1 M242,269.2c0.3-0.6,0-1.3-0.6-1.5c-0.6-0.3-1.3,0-1.5,0.6l-3.8,8.6
				l-3.8-8.6c-0.3-0.6-1-0.9-1.5-0.6c-0.6,0.3-0.9,1-0.6,1.5l4.8,10.9c0.2,0.4,0.6,0.7,1.1,0.7s0.9-0.3,1.1-0.7L242,269.2z
				 M226.4,280.7c0.6,0,1.2-0.5,1.2-1.2v-10.8c0-0.6-0.5-1.2-1.2-1.2c-0.6,0-1.2,0.5-1.2,1.2v10.8
				C225.2,280.2,225.7,280.7,226.4,280.7 M220.9,267.6c-0.6,0-1.2,0.5-1.2,1.2v4.4h-7.4v-4.4c0-0.6-0.5-1.2-1.2-1.2
				c-0.6,0-1.2,0.5-1.2,1.2v10.7c0,0.6,0.5,1.2,1.2,1.2c0.6,0,1.2-0.5,1.2-1.2v-4h7.4v4c0,0.6,0.5,1.2,1.2,1.2
				c0.6,0,1.2-0.5,1.2-1.2v-10.8C222.1,268.1,221.6,267.6,220.9,267.6 M198.6,267.6c-0.6,0-1.2,0.5-1.2,1.2v7.7l-7.5-8.4
				c-0.1-0.1-0.1-0.1-0.2-0.2v-0.1l0,0c-0.2-0.2-0.5-0.3-0.7-0.3c-0.6,0-1.2,0.5-1.2,1.2v10.7c0,0.6,0.5,1.2,1.2,1.2
				c0.6,0,1.2-0.5,1.2-1.2v-7.8l7.4,8.3c0.2,0.4,0.6,0.7,1.1,0.7c0.6,0,1.2-0.5,1.2-1.2v-10.7C199.8,268.1,199.2,267.6,198.6,267.6
				 M177.5,275.5l1.8-4l1.8,4H177.5z M185.2,279.1l-4.8-10.9c-0.2-0.4-0.6-0.7-1.1-0.7s-0.9,0.3-1.1,0.7l-4.8,10.9
				c-0.3,0.6,0,1.3,0.6,1.5c0.6,0.3,1.3,0,1.5-0.6l1-2.2h5.6l1,2.2c0.3,0.6,1,0.9,1.5,0.6C185.2,280.3,185.5,279.7,185.2,279.1
				 M169.6,280.7c0.6,0,1.2-0.5,1.2-1.2v-10.8c0-0.6-0.5-1.2-1.2-1.2c-0.6,0-1.2,0.5-1.2,1.2v10.8
				C168.4,280.2,168.9,280.7,169.6,280.7 M164.8,267.6h-9.5c-0.6,0-1.1,0.5-1.1,1.1s0.5,1.1,1.1,1.1h3.6v9.7c0,0.6,0.5,1.2,1.2,1.2
				c0.6,0,1.2-0.5,1.2-1.2v-9.7h3.6c0.6,0,1.1-0.5,1.1-1.1C165.9,268.1,165.4,267.6,164.8,267.6 M150.5,280.7c0.6,0,1.2-0.5,1.2-1.2
				v-10.8c0-0.6-0.5-1.2-1.2-1.2c-0.6,0-1.2,0.5-1.2,1.2v10.8C149.3,280.2,149.8,280.7,150.5,280.7 M145.7,278.4H139v-9.7
				c0-0.6-0.5-1.2-1.2-1.2c-0.6,0-1.2,0.5-1.2,1.2v10.8c0,0.6,0.5,1.2,1.2,1.2h7.9c0.6,0,1.1-0.5,1.1-1.1S146.3,278.4,145.7,278.4
				 M132.4,278.4h-6.2v-2.8h5c0.6,0,1.1-0.5,1.1-1.1s-0.5-1.1-1.1-1.1h-5v-3.5h6.2c0.6,0,1.1-0.5,1.1-1.1s-0.5-1.1-1.1-1.1h-7.3
				c-0.6,0-1.2,0.5-1.2,1.2v10.8c0,0.6,0.5,1.2,1.2,1.2h7.3c0.6,0,1.1-0.5,1.1-1.1S133,278.4,132.4,278.4 M119.6,267.6
				c-0.6,0-1.2,0.5-1.2,1.2v7.7l-7.5-8.4c-0.1-0.1-0.1-0.1-0.2-0.2v-0.1l0,0c-0.2-0.2-0.5-0.3-0.7-0.3c-0.6,0-1.2,0.5-1.2,1.2v10.7
				c0,0.6,0.5,1.2,1.2,1.2c0.6,0,1.2-0.5,1.2-1.2v-7.8l7.4,8.3c0.2,0.4,0.6,0.7,1.1,0.7c0.6,0,1.2-0.5,1.2-1.2v-10.7
				C120.8,268.1,120.2,267.6,119.6,267.6 M104.6,278.4h-6.2v-2.8h5c0.6,0,1.1-0.5,1.1-1.1s-0.5-1.1-1.1-1.1h-5v-3.5h6.2
				c0.6,0,1.1-0.5,1.1-1.1s-0.5-1.1-1.1-1.1h-7.3c-0.6,0-1.2,0.5-1.2,1.2v10.8c0,0.6,0.5,1.2,1.2,1.2h7.3c0.6,0,1.1-0.5,1.1-1.1
				S105.2,278.4,104.6,278.4 M88.7,274.3h-3.1v-4.5h3.1c1.2,0,2.2,1,2.2,2.2C90.9,273.3,89.9,274.3,88.7,274.3 M88.7,267.6h-4.3
				c-0.6,0-1.2,0.5-1.2,1.2v10.8c0,0.6,0.5,1.2,1.2,1.2c0.6,0,1.2-0.5,1.2-1.2v-2.9h3.1c2.5,0,4.5-2,4.5-4.5
				C93.2,269.6,91.2,267.6,88.7,267.6 M72.4,267.6h-9.5c-0.6,0-1.1,0.5-1.1,1.1s0.5,1.1,1.1,1.1h3.6v9.7c0,0.6,0.5,1.2,1.2,1.2
				c0.6,0,1.2-0.5,1.2-1.2v-9.7h3.6c0.6,0,1.1-0.5,1.1-1.1C73.6,268.1,73.1,267.6,72.4,267.6 M52.1,275.5l1.8-4l1.8,4H52.1z
				 M59.8,279.1L55,268.2c-0.2-0.4-0.6-0.7-1.1-0.7s-0.9,0.3-1.1,0.7L48,279.1c-0.3,0.6,0,1.3,0.6,1.5c0.6,0.3,1.3,0,1.5-0.6l1-2.2
				h5.6l1,2.2c0.3,0.6,1,0.9,1.5,0.6C59.8,280.3,60,279.7,59.8,279.1 M40,280.9c1.9,0,5.3-0.8,5.3-3.9c0-2.9-2.9-3.5-5.3-4
				c-1.6-0.3-2.7-0.4-2.7-1.5c0-0.9,0.8-1.8,2.7-1.8c1.3,0,2.5,0.4,3.5,1c0.2,0.1,0.3,0.1,0.5,0.1c0.6,0,1.1-0.5,1.1-1.1
				c0-0.4-0.2-0.8-0.6-1c-1.3-0.7-2.8-1.2-4.4-1.2c-2.3,0-5.2,1.2-5.2,4.2c0,3.1,3.1,3.6,5.1,3.9c1.8,0.3,2.9,0.5,3,1.5
				c0,1.4-2,1.6-2.9,1.6c-1.3,0-2.5-0.5-3.7-1c-0.8-0.4-1.7,0.2-1.7,1c0,0.4,0.2,0.8,0.6,1C36.8,280.4,38.5,280.9,40,280.9z
				 M25.5,280.9c3.4,0,6.2-2.7,6.2-6.1v-6.1c0-0.6-0.5-1.2-1.2-1.2c-0.6,0-1.2,0.5-1.2,1.2v6.1c0,2.1-1.7,3.8-3.8,3.8
				s-3.8-1.7-3.8-3.8v-6.1c0-0.6-0.5-1.2-1.2-1.2c-0.6,0-1.2,0.5-1.2,1.2v6.1C19.4,278.2,22.1,280.9,25.5,280.9 M12,274.3H8.9v-4.5
				H12c1.2,0,2.2,1,2.2,2.2C14.1,273.3,13.2,274.3,12,274.3 M12,267.6H7.7c-0.6,0-1.2,0.5-1.2,1.2v10.8c0,0.6,0.5,1.2,1.2,1.2
				c0.6,0,1.2-0.5,1.2-1.2v-2.9H12c2.5,0,4.5-2,4.5-4.5C16.5,269.6,14.5,267.6,12,267.6"/>
		</g>
	</g>
	<g>
		<g>
			<defs>
				<rect id="SVGID_5_" x="0.3" y="17.1" width="375.8" height="286.8"/>
			</defs>
			<clipPath id="SVGID_6_">
				<use xlink:href="#SVGID_5_"  style="overflow:visible;"/>
			</clipPath>
			<path class="st2" d="M191.7,298.5l1.8-4l1.8,4H191.7z M199.3,302.1l-4.8-10.9c-0.2-0.4-0.6-0.7-1.1-0.7s-0.9,0.3-1.1,0.7
				l-4.8,10.9c-0.3,0.6,0,1.3,0.6,1.5c0.6,0.3,1.3,0,1.5-0.6l1-2.2h5.6l1,2.2c0.3,0.6,1,0.9,1.5,0.6
				C199.3,303.4,199.6,302.7,199.3,302.1 M185.9,290.8c-0.5-0.4-1.3-0.2-1.6,0.4l-3.6,5.7l-3.6-5.7c-0.3-0.5-1.1-0.7-1.6-0.4
				c-0.5,0.3-0.7,1.1-0.4,1.6l4.4,6.9v3.3c0,0.6,0.5,1.2,1.2,1.2c0.6,0,1.2-0.5,1.2-1.2v-3.3l4.4-6.9
				C186.6,291.9,186.4,291.1,185.9,290.8 M166.1,298.5l1.8-4l1.8,4H166.1z M173.8,302.1l-4.8-10.9c-0.2-0.4-0.6-0.7-1.1-0.7
				s-0.9,0.3-1.1,0.7l-4.8,10.9c-0.3,0.6,0,1.3,0.6,1.5c0.6,0.3,1.3,0,1.5-0.6l1-2.2h5.6l1,2.2c0.3,0.6,1,0.9,1.5,0.6
				C173.8,303.4,174,302.7,173.8,302.1 M153.6,303.9c2.8,0,5-2.2,5-4.9v-7.2c0-0.6-0.5-1.2-1.2-1.2c-0.6,0-1.2,0.5-1.2,1.2v7.2
				c0,1.5-1.2,2.7-2.7,2.7c-1.2,0-2.2-0.8-2.5-1.9c-0.1-0.5-0.6-0.8-1.1-0.8c-0.8,0-1.3,0.8-1.1,1.5
				C149.4,302.4,151.3,303.9,153.6,303.9 M132.8,298.5l1.8-4l1.8,4H132.8z M140.5,302.1l-4.8-10.9c-0.2-0.4-0.6-0.7-1.1-0.7
				s-0.9,0.3-1.1,0.7l-4.8,10.9c-0.3,0.6,0,1.3,0.6,1.5c0.6,0.3,1.3,0,1.5-0.6l1-2.2h5.6l1,2.2c0.3,0.6,1,0.9,1.5,0.6
				C140.5,303.4,140.8,302.7,140.5,302.1 M123.9,290.6c-0.4,0-0.8,0.2-1,0.5l-4.4,5.4l-4.4-5.4c-0.2-0.3-0.6-0.5-1-0.5
				c-0.6,0-1.2,0.5-1.2,1.2v10.8c0,0.6,0.5,1.2,1.2,1.2c0.6,0,1.2-0.5,1.2-1.2V295l3.3,4c0.2,0.3,0.6,0.4,0.9,0.4s0.7-0.1,0.9-0.4
				l3.3-4v7.6c0,0.6,0.5,1.2,1.2,1.2c0.6,0,1.2-0.5,1.2-1.2v-10.8C125.1,291.1,124.6,290.6,123.9,290.6 M107.4,290.6h-9.5
				c-0.6,0-1.1,0.5-1.1,1.1s0.5,1.1,1.1,1.1h3.6v9.7c0,0.6,0.5,1.2,1.2,1.2c0.6,0,1.2-0.5,1.2-1.2v-9.7h3.6c0.6,0,1.1-0.5,1.1-1.1
				C108.5,291.1,108,290.6,107.4,290.6 M86.1,298.5l1.8-4l1.8,4H86.1z M93.8,302.1L89,291.2c-0.2-0.4-0.6-0.7-1.1-0.7
				s-0.9,0.3-1.1,0.7L82,302.1c-0.3,0.6,0,1.3,0.6,1.5c0.6,0.3,1.3,0,1.5-0.6l1-2.2h5.6l1,2.2c0.3,0.6,1,0.9,1.5,0.6
				C93.8,303.4,94,302.7,93.8,302.1 M63.2,298.5l1.8-4l1.8,4H63.2z M70.9,302.1l-4.8-10.9c-0.2-0.4-0.6-0.7-1.1-0.7
				s-0.9,0.3-1.1,0.7l-4.8,10.9c-0.3,0.6,0,1.3,0.6,1.5c0.6,0.3,1.3,0,1.5-0.6l1-2.2h5.6l1,2.2c0.3,0.6,1,0.9,1.5,0.6
				C70.9,303.4,71.2,302.7,70.9,302.1 M55.8,301.7l-4.6-5.2l4.1-3.9c0.5-0.4,0.5-1.2,0-1.7c-0.4-0.5-1.2-0.5-1.7,0l-6.1,5.8v-4.9
				c0-0.6-0.5-1.2-1.2-1.2c-0.6,0-1.2,0.5-1.2,1.2v10.8c0,0.6,0.5,1.2,1.2,1.2c0.6,0,1.2-0.5,1.2-1.2V300l1.9-1.8l4.6,5.1
				c0.4,0.5,1.2,0.5,1.7,0.1S56.2,302.2,55.8,301.7 M40,303.7c0.6,0,1.2-0.5,1.2-1.2v-10.8c0-0.6-0.5-1.2-1.2-1.2
				c-0.6,0-1.2,0.5-1.2,1.2v10.8C38.8,303.2,39.4,303.7,40,303.7 M33.6,290.6c-0.6,0-1.2,0.5-1.2,1.2v7.7l-7.5-8.4
				c0-0.1-0.1-0.1-0.2-0.2v-0.1l0,0c-0.2-0.2-0.5-0.3-0.7-0.3c-0.6,0-1.2,0.5-1.2,1.2v10.7c0,0.6,0.5,1.2,1.2,1.2
				c0.6,0,1.2-0.5,1.2-1.2v-7.8l7.4,8.3c0.2,0.4,0.6,0.7,1.1,0.7c0.6,0,1.2-0.5,1.2-1.2v-10.7C34.8,291.1,34.3,290.6,33.6,290.6
				 M12.6,303.9c3.4,0,6.2-2.7,6.2-6.1v-6.1c0-0.6-0.5-1.2-1.2-1.2c-0.6,0-1.2,0.5-1.2,1.2v6.1c0,2.1-1.7,3.8-3.8,3.8
				s-3.8-1.7-3.8-3.8v-6.1c0-0.6-0.5-1.2-1.2-1.2c-0.6,0-1.2,0.5-1.2,1.2v6.1C6.5,301.2,9.2,303.9,12.6,303.9"/>
		</g>
	</g>
	<g>
		<g>
			<defs>
				<rect id="SVGID_7_" x="0.3" y="17.1" width="375.8" height="286.8"/>
			</defs>
			<clipPath id="SVGID_8_">
				<use xlink:href="#SVGID_7_"  style="overflow:visible;"/>
			</clipPath>
			<path class="st3" d="M104.4,50.2c7.3,0,13.3-5.9,13.3-13.3c0-7.3-5.9-13.3-13.3-13.3s-13.3,5.9-13.3,13.3
				C91.2,44.3,97.1,50.2,104.4,50.2"/>
		</g>
	</g>
	<g>
		<g>
			<defs>
				<rect id="SVGID_9_" x="0.3" y="17.1" width="375.8" height="286.8"/>
			</defs>
			<clipPath id="SVGID_10_">
				<use xlink:href="#SVGID_9_"  style="overflow:visible;"/>
			</clipPath>
			<path class="st4" d="M66.1,52.8c8.7,0,15.8-7.1,15.8-15.8s-7.1-15.8-15.8-15.8s-15.9,7-15.9,15.8C50.2,45.7,57.3,52.8,66.1,52.8"
				/>
		</g>
	</g>
	<g>
		<g>
			<defs>
				<rect id="SVGID_11_" x="0.3" y="17.1" width="375.8" height="286.8"/>
			</defs>
			<clipPath id="SVGID_12_">
				<use xlink:href="#SVGID_11_"  style="overflow:visible;"/>
			</clipPath>
			<path class="st5" d="M20.2,56.9c11,0,19.9-8.9,19.9-19.9s-8.9-19.9-19.9-19.9S0.3,26,0.3,37S9.2,56.9,20.2,56.9"/>
		</g>
	</g>
</g>
<line class="st6" x1="4.6" y1="247.3" x2="299.3" y2="247.3"/>
<g>
	<g>
		<g>
			<defs>
				<rect id="SVGID_13_" x="0.3" y="17.1" width="375.8" height="286.8"/>
			</defs>
			<clipPath id="SVGID_14_">
				<use xlink:href="#SVGID_13_"  style="overflow:visible;"/>
			</clipPath>
			<path class="st7" d="M301.2,247.3L301.2,247.3 M0.9,247.3L0.9,247.3"/>
		</g>
	</g>
	<g>
		<g>
			<defs>
				<rect id="SVGID_15_" x="0.3" y="17.1" width="375.8" height="286.8"/>
			</defs>
			<clipPath id="SVGID_16_">
				<use xlink:href="#SVGID_15_"  style="overflow:visible;"/>
			</clipPath>
			<path class="st8" d="M74.8,143.7c0,15.7-12.8,28.5-28.5,28.5s-28.5-12.8-28.5-28.5s12.8-28.5,28.5-28.5S74.8,128,74.8,143.7
				 M91.9,143.7c0-25.1-20.4-45.6-45.6-45.6c-10.8,0-20.7,3.8-28.5,10.1v-1.5c0-4.7-3.8-8.5-8.5-8.5s-8.5,3.8-8.5,8.5v116.6
				c0,4.7,3.8,8.5,8.5,8.5s8.5-3.8,8.5-8.5v-44.1c7.8,6.3,17.7,10.1,28.5,10.1C71.4,189.3,91.9,168.8,91.9,143.7 M181.9,143.7
				c0,15.7-12.8,28.5-28.5,28.5s-28.5-12.8-28.5-28.5v-0.1c0-15.7,12.8-28.5,28.5-28.5C169.1,115.2,181.9,128,181.9,143.7
				 M198.9,143.7c0-25.1-20.4-45.6-45.6-45.6c-10.8,0-20.7,3.8-28.5,10.1v-1.3c0-4.7-3.8-8.5-8.5-8.5s-8.5,3.8-8.5,8.5v36.7v0.1v0.1
				v79.7c0,4.7,3.8,8.5,8.5,8.5s8.5-3.8,8.5-8.5v-44.3c7.8,6.3,17.7,10.1,28.5,10.1C178.5,189.3,198.9,168.8,198.9,143.7 M306,143.8
				v-2.1c-1.1-24.4-21.1-43.6-45.5-43.6c-10.8,0-20.7,3.9-28.5,10.2v-44c0-4.5-3.8-8.2-8.5-8.2s-8.5,3.7-8.5,8.2V181
				c0,4.5,3.8,8.1,8.4,8.2h0.1l0,0l0,0c4.7,0,8.5-3.7,8.5-8.2v-0.3l0,0v-37c0-15.7,12.8-28.5,28.5-28.5c15.5,0,28.3,12.6,28.5,28.1
				v37.4c0,4.7,3.8,8.5,8.5,8.5s8.5-3.8,8.5-8.5V144V143.8z"/>
		</g>
	</g>
	<g>
		<g>
			<defs>
				<rect id="SVGID_17_" x="0.3" y="17.1" width="375.8" height="286.8"/>
			</defs>
			<clipPath id="SVGID_18_">
				<use xlink:href="#SVGID_17_"  style="overflow:visible;"/>
			</clipPath>
			<path class="st9" d="M0.3,143.8c0,14.4,6.7,27.2,17.1,35.6v-71.1C7,116.6,0.3,129.5,0.3,143.8"/>
		</g>
	</g>
	<g>
		<g>
			<defs>
				<rect id="SVGID_19_" x="0.3" y="17.1" width="375.8" height="286.8"/>
			</defs>
			<clipPath id="SVGID_20_">
				<use xlink:href="#SVGID_19_"  style="overflow:visible;"/>
			</clipPath>
			<path class="st10" d="M216.4,142.1L216.4,142.1L216.4,142.1L216.4,142.1z M214.8,141.6v39.3c0,4.7,3.8,8.5,8.4,8.5h0.1
				c4.7,0,8.5-3.8,8.5-8.5v-72.7C222,116.1,215.4,128,214.8,141.6"/>
		</g>
	</g>
	<g>
		<g>
			<defs>
				<rect id="SVGID_21_" x="0.3" y="17.1" width="375.8" height="286.8"/>
			</defs>
			<clipPath id="SVGID_22_">
				<use xlink:href="#SVGID_21_"  style="overflow:visible;"/>
			</clipPath>
			<path class="st11" d="M0.3,143.8v79.7c0,4.7,3.8,8.5,8.6,8.5c4.7,0,8.5-3.8,8.5-8.5v-44.1C7,171,0.3,158.2,0.3,143.8 M17.4,108.3
				v-1.5c0-4.7-3.8-8.5-8.5-8.5s-8.6,3.8-8.6,8.5v37.1C0.3,129.5,7,116.6,17.4,108.3 M91.6,143.8c0-25.2-20.5-45.6-45.6-45.6
				c-10.8,0-20.7,3.8-28.5,10.1v35.6c0-15.7,12.8-28.5,28.5-28.5s28.5,12.8,28.5,28.5S61.7,172.5,46,172.5s-28.5-12.8-28.5-28.6
				v35.6c7.8,6.3,17.7,10.1,28.5,10.1C71.1,189.5,91.6,169,91.6,143.8"/>
		</g>
	</g>
	<g>
		<g>
			<defs>
				<rect id="SVGID_23_" x="0.3" y="17.1" width="375.8" height="286.8"/>
			</defs>
			<clipPath id="SVGID_24_">
				<use xlink:href="#SVGID_23_"  style="overflow:visible;"/>
			</clipPath>
			<path class="st12" d="M107.8,143.8c0,14.4,6.7,27.2,17.1,35.6v-71.1C114.5,116.6,107.8,129.5,107.8,143.8"/>
		</g>
	</g>
	<g>
		<g>
			<defs>
				<rect id="SVGID_25_" x="0.3" y="17.1" width="375.8" height="286.8"/>
			</defs>
			<clipPath id="SVGID_26_">
				<use xlink:href="#SVGID_25_"  style="overflow:visible;"/>
			</clipPath>
			<path class="st13" d="M107.8,143.8v79.7c0,4.7,3.8,8.5,8.6,8.5c4.7,0,8.5-3.8,8.5-8.5v-44.1C114.5,171,107.8,158.2,107.8,143.8
				 M124.9,108.3v-1.5c0-4.7-3.8-8.5-8.5-8.5s-8.6,3.8-8.6,8.5v37.1C107.8,129.5,114.5,116.6,124.9,108.3 M199.1,143.8
				c0-25.2-20.5-45.6-45.6-45.6c-10.8,0-20.7,3.8-28.5,10.1v35.6c0-15.7,12.8-28.5,28.5-28.5s28.5,12.8,28.5,28.5
				s-12.8,28.6-28.5,28.6S125,159.7,125,143.9v35.6c7.8,6.3,17.7,10.1,28.5,10.1C178.7,189.5,199.1,169,199.1,143.8"/>
		</g>
	</g>
	<g>
		<g>
			<defs>
				<rect id="SVGID_27_" x="0.3" y="17.1" width="375.8" height="286.8"/>
			</defs>
			<clipPath id="SVGID_28_">
				<use xlink:href="#SVGID_27_"  style="overflow:visible;"/>
			</clipPath>
			<path class="st14" d="M223.3,189.5h-0.1C223.2,189.5,223.2,189.5,223.3,189.5L223.3,189.5 M223.3,189.5L223.3,189.5
				c4.7,0,8.5-3.7,8.5-8.2V181C231.8,185.6,228,189.5,223.3,189.5 M214.7,180.9v0.3c0,4.5,3.8,8.2,8.4,8.2
				C218.5,189.4,214.7,185.6,214.7,180.9 M231.8,108.2V64.3c0-4.5-3.8-8.2-8.5-8.2s-8.6,3.7-8.6,8.2v116.6v-39.3
				C215.4,128,222,116.1,231.8,108.2 M216.4,142.1L216.4,142.1L216.4,142.1L216.4,142.1z M306,144v-2.1
				c-1.1-24.5-21.1-43.6-45.6-43.6c-10.8,0-20.7,3.7-28.5,10V181l0,0v-37.1c0-15.7,12.8-28.5,28.5-28.5c15.5,0,28.3,12.6,28.5,28.2
				v37.5c0,4.7,3.8,8.5,8.5,8.5s8.5-3.8,8.5-8.5v-36.8L306,144z"/>
		</g>
	</g>
</g>
</svg>
